HIERARCHY
ROOT Hips
{
  OFFSET 0.000000 0.000000 0.000000
  CHANNELS 6 Xposition Yposition Zposition Zrotation Yrotation Xrotation
  JOINT Spine
  {
    OFFSET -0.000883 2.120903 -0.028059
    CHANNELS 3 Zrotation Yrotation Xrotation
    JOINT Spine1
    {
      OFFSET -0.002865 2.096658 0.129739
      CHANNELS 3 Zrotation Yrotation Xrotation
      JOINT Spine2
      {
        OFFSET -0.000072 2.101496 0.140380
        CHANNELS 3 Zrotation Yrotation Xrotation
        JOINT Neck
        {
          OFFSET 0.073278 1.835262 0.072900
          CHANNELS 3 Zrotation Yrotation Xrotation
          JOINT Head
          {
            OFFSET -0.033980 1.851628 -0.175733
            CHANNELS 3 Zrotation Yrotation Xrotation
            End Site
            {
              OFFSET 0 0 0
            }
          }
        }
        JOINT LeftShoulder
        {
          OFFSET 3.021134 1.180177 0.406022
          CHANNELS 3 Zrotation Yrotation Xrotation
          JOINT LeftArm
          {
            OFFSET 4.585380 -0.000000 -0.000000
            CHANNELS 3 Zrotation Yrotation Xrotation
            JOINT LeftForeArm
            {
              OFFSET 2.689350 -0.000000 -0.000000
              CHANNELS 3 Zrotation Yrotation Xrotation
              JOINT LeftHand
              {
                OFFSET 0.585058 -0.000000 -0.000000
                CHANNELS 3 Zrotation Yrotation Xrotation
                JOINT LeftHandIndex1
                {
                  OFFSET 0.471689 -0.000000 -0.000000
                  CHANNELS 3 Zrotation Yrotation Xrotation
                  End Site
                  {
                    OFFSET 0 0 0
                  }
                }
              }
            }
          }
        }
        JOINT RightShoulder
        {
          OFFSET -2.950738 1.188427 0.314298
          CHANNELS 3 Zrotation Yrotation Xrotation
          JOINT RightArm
          {
            OFFSET -4.474500 -0.000000 -0.000000
            CHANNELS 3 Zrotation Yrotation Xrotation
            JOINT RightForeArm
            {
              OFFSET -2.938960 -0.000000 -0.000000
              CHANNELS 3 Zrotation Yrotation Xrotation
              JOINT RightHand
              {
                OFFSET -0.405092 -0.000000 -0.000000
                CHANNELS 3 Zrotation Yrotation Xrotation
                JOINT RightHandIndex1
                {
                  OFFSET -0.326596 -0.000000 -0.000000
                  CHANNELS 3 Zrotation Yrotation Xrotation
                  End Site
                  {
                    OFFSET 0 0 0
                  }
                }
              }
            }
          }
        }
      }
    }
  }
  JOINT LeftUpLeg
  {
    OFFSET 2.251771 -6.186694 0.000000
    CHANNELS 3 Zrotation Yrotation Xrotation
    JOINT LeftLeg
    {
      OFFSET 2.266012 -6.225823 0.000000
      CHANNELS 3 Zrotation Yrotation Xrotation
      JOINT LeftFoot
      {
        OFFSET 0.237014 -0.651191 2.158476
        CHANNELS 3 Zrotation Yrotation Xrotation
        JOINT LeftToeBase
        {
          OFFSET 0.000000 -0.000000 1.129490
          CHANNELS 3 Zrotation Yrotation Xrotation
          End Site
          {
            OFFSET 0 0 0
          }
        }
      }
    }
  }
  JOINT RightUpLeg
  {
    OFFSET -2.280357 -6.265234 0.000000
    CHANNELS 3 Zrotation Yrotation Xrotation
    JOINT RightLeg
    {
      OFFSET -2.254897 -6.195283 0.000000
      CHANNELS 3 Zrotation Yrotation Xrotation
      JOINT RightFoot
      {
        OFFSET -0.283752 -0.779600 2.231370
        CHANNELS 3 Zrotation Yrotation Xrotation
        JOINT RightToeBase
        {
          OFFSET -0.000000 -0.000000 1.178990
          CHANNELS 3 Zrotation Yrotation Xrotation
          End Site
          {
            OFFSET 0 0 0
          }
        }
      }
    }
  }
}
MOTION
Frames: 5
Frame Time: 0.00833333
3.535440 14.762000 10.491100 -8.201440 -20.260900 23.675900 -8.998650 9.820260 -56.947600 0.000000 0.000000 52.675600 9.460020 0.000000 -13.155800 0.000000 0.000000 -0.285237 6.133840 5.576960 -6.815930 0.000000 0.000000 9.396090 -11.531100 0.000000 -14.086300 0.000000 0.000000 -16.361300 -1.314680 -2.189180 4.959560 1.242380 -2.974250 -3.547540 2.338770 -1.385040 -6.343080 20.215800 12.255200 -5.873330 -6.221290 8.038510 7.683370 -0.000000 0.000000 0.000000 59.550600 -43.954000 4.993930 0.000000 0.000000 46.764000 5.155370 0.000000 -15.740400 0.000000 0.000000 7.125020 -0.000000 0.000000 0.000000 -74.199600 38.335300 5.545850 0.000000 0.000000 129.551000 2.144540 0.000000 -22.636300 0.000000 0.000000 7.125020
3.512000 14.770000 10.465100 -7.995410 -20.371400 23.443000 -9.033700 9.784230 -56.566100 0.000000 0.000000 52.270200 9.458460 0.000000 -12.976000 0.000000 0.000000 -0.331753 5.944160 5.455800 -7.435520 0.000000 0.000000 10.779800 -11.041500 0.000000 -14.761400 0.000000 0.000000 -16.489000 -1.385420 -2.203660 4.873600 1.194500 -3.001360 -3.576270 2.327820 -1.396760 -6.321770 20.157300 12.198600 -5.902890 -6.214830 8.004410 7.715030 -0.000000 -0.000000 0.000000 59.731500 -43.902200 4.841750 0.000000 0.000000 47.335000 5.331900 0.000000 -15.634500 0.000000 0.000000 7.125020 -0.000000 -0.000000 0.000000 -74.130900 38.433400 5.619340 0.000000 0.000000 129.524000 2.150720 0.000000 -22.618300 0.000000 0.000000 7.125020
3.486080 14.778000 10.437100 -7.775000 -20.472000 23.186900 -9.068770 9.743320 -56.164800 0.000000 0.000000 51.846800 9.452590 0.000000 -12.779700 0.000000 0.000000 -0.387574 5.750400 5.403140 -7.985380 0.000000 0.000000 12.058300 -10.654500 0.000000 -15.383000 0.000000 0.000000 -16.672200 -1.458020 -2.223050 4.794520 1.153870 -3.034710 -3.604110 2.326320 -1.411280 -6.302710 20.097100 12.150300 -5.933600 -6.212000 7.976710 7.755510 0.000000 -0.000000 0.000000 59.985600 -43.776900 4.602250 0.000000 0.000000 48.031400 5.518840 0.000000 -15.535200 0.000000 0.000000 7.125020 0.000000 -0.000000 0.000000 -74.051500 38.525300 5.684340 0.000000 0.000000 129.455000 2.109340 0.000000 -22.569600 0.000000 0.000000 7.125020
3.457710 14.785500 10.407200 -7.545120 -20.560800 22.907400 -9.098510 9.696990 -55.743600 0.000000 0.000000 51.409700 9.444050 0.000000 -12.567500 0.000000 0.000000 -0.453780 5.566700 5.348740 -8.469330 0.000000 0.000000 13.245000 -10.304900 0.000000 -15.964200 0.000000 0.000000 -16.861800 -1.529840 -2.249490 4.724570 1.123920 -3.076840 -3.631880 2.336760 -1.429850 -6.287840 20.033200 12.111500 -5.958440 -6.211810 7.956880 7.802200 0.000000 -0.000000 0.000000 60.324400 -43.563800 4.262370 0.000000 0.000000 48.854700 5.700020 0.000000 -15.430900 0.000000 0.000000 7.125020 0.000000 -0.000000 0.000000 -73.958100 38.620000 5.743030 0.000000 0.000000 129.347000 2.040380 0.000000 -22.500800 0.000000 0.000000 7.125020
3.426820 14.792600 10.374800 -7.313870 -20.640100 22.605300 -9.112550 9.647400 -55.301600 0.000000 0.000000 50.960900 9.435050 0.000000 -12.339700 0.000000 0.000000 -0.532856 5.403160 5.296930 -8.891870 0.000000 0.000000 14.347300 -9.998700 0.000000 -16.502500 0.000000 0.000000 -17.075100 -1.591150 -2.276890 4.667540 1.100380 -3.119150 -3.659340 2.348590 -1.448680 -6.280220 19.966300 12.076500 -5.973490 -6.213330 7.941120 7.849610 0.000000 -0.000000 0.000000 60.718900 -43.296400 3.847500 0.000000 0.000000 49.802700 5.864630 0.000000 -15.303800 0.000000 0.000000 7.125020 0.000000 -0.000000 0.000000 -73.855000 38.712300 5.789240 0.000000 0.000000 129.206000 1.959540 0.000000 -22.421700 0.000000 0.000000 7.125020
